# xmcd CD database file
#
# Track frame offsets:
#	150
#	14122
#	30308
#	43983
#	57332
#	71663
#	85281
#	102280
#	118417
#	129984
#	146288
#
# Disc length: 2142 seconds
#
# Revision: 1
# Processed by: cddbd v1.5.2PL0 Copyright (c) Steve Scherf et al.
# Submitted via: CDex 2.21
#
DISCID=9d085c0b
DTITLE=Tracy Lawrence - Good Ole Days
DYEAR=2017
DGENRE=Country
TTITLE0=Time Marches On
TTITLE1=Sticks and Stones
TTITLE2=Alibis
TTITLE3=Can't Break It to My Heart
TTITLE4=Good Ole Days
TTITLE5=If the World Had a Front Porch
TTITLE6=Texas Tornado
TTITLE7=Stars over Texas
TTITLE8=If the Good Die Young
TTITLE9=Paint Me a Birmingham
TTITLE10=Finally Home
EXTD=YEAR: 2017
EXTT0=
EXTT1=
EXTT2=
EXTT3=
EXTT4=
EXTT5=
EXTT6=
EXTT7=
EXTT8=
EXTT9=
EXTT10=
PLAYORDER=
